<svg xmlns="http://www.w3.org/2000/svg" version="1.1" xmlns:xlink="http://www.w3.org/1999/xlink" xmlns:svgjs="http://svgjs.dev/svgjs" width="2000" height="570" viewBox="0 0 2000 570"><g transform="matrix(1,0,0,1,-1.2121212121212466,-0.8089420286361815)"><svg viewBox="0 0 396 113" data-background-color="#fafafa" preserveAspectRatio="xMidYMid meet" height="570" width="2000" xmlns="http://www.w3.org/2000/svg" xmlns:xlink="http://www.w3.org/1999/xlink"><g id="tight-bounds" transform="matrix(1,0,0,1,0.2400000000000091,0.1603692091857738)"><svg viewBox="0 0 395.52 112.67926158162842" height="112.67926158162842" width="395.52"><g><svg viewBox="0 0 593.4766208152731 169.07490746213864" height="112.67926158162842" width="395.52"><g transform="matrix(1,0,0,1,0,23.36708200091787)"><svg viewBox="0 0 395.52 122.3407434603029" height="122.3407434603029" width="395.52"><g id="textblocktransform"><svg viewBox="0 0 395.52 122.3407434603029" height="122.3407434603029" width="395.52" id="textblock"><g><svg viewBox="0 0 395.52 122.3407434603029" height="122.3407434603029" width="395.52"><g transform="matrix(1,0,0,1,0,0)"><svg width="395.52" viewBox="1.8 -33.7 108.95 33.7" height="122.3407434603029" data-palette-color="#130912"><path d="M18.1-21.2L21.6-33.2 25.65-33.2 29.35-21.2 34.45-4.1Q36.75-15.15 38.15-21.15L38.15-21.15 41-33.7 45.1-33.7 37.2 0 32 0 28.75-10.65 23.7-27.5Q22.15-21.6 18.9-10.65L18.9-10.65 15.75 0 10.6 0 1.8-33.7 6.05-33.7 9.2-21.2 13.35-4.25Q16.15-14.5 18.1-21.2L18.1-21.2ZM69.25-33.7L69.25-30.15 54.8-30.15 54.8-18.2 67.5-18.2 67.5-14.65 54.8-14.65 54.8 0 50.75 0 50.75-33.7 69.25-33.7ZM78.9 0L74.85 0 77.3-33.7 82.45-33.7 86.9-21.4 92.3-5.7Q95.2-13.9 98-21.4L98-21.4 102.65-33.7 107.8-33.7 110.75 0 106.7 0 105.55-13.3 104.35-28.25Q101.7-20.85 98.9-13.3L98.9-13.3 94.2-0.75 90.35-0.75 85.9-13.3 80.8-27.95Q80.8-26 79.85-13.3L79.85-13.3 78.9 0Z" opacity="1" transform="matrix(1,0,0,1,0,0)" fill="#ffffff" class="wordmark-text-0" data-fill-palette-color="primary" id="text-0"></path></svg></g></svg></g></svg></g></svg></g><g transform="matrix(1,0,0,1,424.4017133531344,0)"><svg viewBox="0 0 169.07490746213864 169.07490746213864" height="169.07490746213864" width="169.07490746213864"><g data-palette-color="#e77917"><rect width="46.213808039651234" height="169.07490746213864" fill="#ffffff" stroke="transparent" data-fill-palette-color="accent" x="0" fill-opacity="1"></rect><rect width="46.213808039651234" height="169.07490746213864" fill="#ffffff" stroke="transparent" data-fill-palette-color="accent" x="56.358302487379554" fill-opacity="0.75"></rect><rect width="46.213808039651234" height="169.07490746213864" fill="#ffffff" stroke="transparent" data-fill-palette-color="accent" x="112.71660497475911" fill-opacity="0.5"></rect></g></svg></g></svg></g><defs></defs></svg><rect width="395.52" height="112.67926158162842" fill="none" stroke="none" visibility="hidden"></rect></g></svg></g></svg>